<svg xmlns="http://www.w3.org/2000/svg" width="500" height="500" viewBox="0 0 500 500" version="1.1"><path d="M 186 123.476 C 173.166 127.633, 165.715 143.529, 170.871 155.750 C 172.956 160.691, 174.231 159.727, 173.515 153.750 C 171.488 136.817, 191.544 120.568, 204 129.052 C 205.090 129.795, 204.519 129.905, 201.909 129.456 C 197.616 128.716, 191.448 130.272, 188 132.964 L 185.500 134.916 189.931 133.401 C 209.756 126.619, 222.665 154.842, 204.148 164.486 C 198.058 167.658, 202.208 168.046, 208.685 164.910 C 235.151 152.099, 214.437 114.266, 186 123.476 M 259.979 168.489 C 245.036 174.377, 237.449 175.385, 215.039 174.461 C 178.795 172.967, 168.465 173.229, 160 175.857 C 144.286 180.736, 128.031 191.741, 121.911 201.644 C 118.608 206.989, 120.063 206.509, 126.682 200.073 C 141.416 185.744, 164.970 179.607, 195.915 182.035 C 227 184.473, 243.703 181.221, 265.403 168.504 C 273.301 163.875, 271.700 163.871, 259.979 168.489 M 253.500 192.562 C 245.529 196.436, 232.635 200, 226.590 200 L 222.500 200 222.500 214.999 C 222.500 223.249, 222.786 229.999, 223.136 230 C 224.369 230, 226.835 223.440, 227.458 218.500 C 228.976 206.460, 228.277 207.532, 236.583 204.502 C 243.977 201.806, 257.161 193.976, 259.872 190.672 C 261.590 188.580, 261.853 188.502, 253.500 192.562 M 181.614 223.750 C 181.328 224.713, 180.404 228.538, 179.561 232.250 C 175.660 249.436, 162.038 267.263, 143.456 279.500 C 134.524 285.383, 133 287.167, 133 291.743 C 133 310.086, 183.364 291.241, 202.655 265.680 L 207.319 259.500 202.909 263.600 C 172.239 292.118, 132.010 304.580, 157.673 277.614 C 173.306 261.188, 181.082 246.215, 182.583 229.651 C 183.233 222.470, 182.793 219.788, 181.614 223.750 M 227 241.640 C 218.412 243.333, 216.999 244.081, 215.001 247.998 C 212.394 253.109, 212.409 253.145, 216.468 251.449 C 229.042 246.195, 254.649 252.789, 271.428 265.601 C 279.213 271.545, 284.507 270.997, 300.236 262.620 C 306.989 259.024, 311.145 255.490, 306.250 257.507 C 293.104 262.924, 287.345 262.128, 270.695 252.593 C 254.037 243.054, 238.980 239.280, 227 241.640" stroke="none" fill="#060a16" fill-rule="evenodd"/><path d="M 188.542 133.068 C 188.760 133.420, 187.825 134.214, 186.466 134.833 C 173.513 140.735, 181.284 167, 195.984 167 C 213.022 167, 219.309 144.851, 204.965 135.358 C 201.152 132.835, 187.195 130.889, 188.542 133.068 M 394.500 148.412 C 383.325 151.189, 367.752 161.099, 358.225 171.495 C 345.279 185.624, 343.749 198.030, 356.106 188.673 C 394.547 159.568, 401.038 162.212, 408.479 210 C 410.204 221.082, 410.876 222.645, 413.478 221.647 C 421.429 218.596, 420.745 182.869, 412.332 161.850 C 406.702 147.784, 404.304 145.976, 394.500 148.412 M 271.186 163.036 C 269.913 163.557, 269.126 164.394, 269.436 164.896 C 269.746 165.399, 267.931 167.022, 265.403 168.504 C 243.703 181.221, 227 184.473, 195.915 182.035 C 164.456 179.567, 141.427 185.707, 126.123 200.644 C 115.824 210.696, 118.900 212.260, 136.500 205.919 C 161.684 196.845, 180.982 201.816, 181.015 217.385 C 181.027 222.684, 181.302 224.117, 182.093 223 C 184.011 220.291, 182.050 236.825, 179.584 244.147 C 175.988 254.825, 168.553 266.181, 157.673 277.614 C 135.708 300.695, 163.140 295.783, 194 271.109 C 199.225 266.932, 203.794 263.609, 204.154 263.725 C 204.514 263.841, 205.414 263.163, 206.154 262.218 C 207.395 260.634, 207.344 260.616, 205.500 261.989 C 204.400 262.809, 205.396 261.534, 207.714 259.158 C 210.032 256.781, 213.032 252.426, 214.381 249.479 C 220.170 236.834, 245.627 238.238, 270.680 252.585 C 286.007 261.361, 289.712 262.254, 299.500 259.530 C 302.800 258.611, 306.512 257.706, 307.750 257.518 C 311.082 257.012, 321.724 249.059, 328.023 242.367 C 340.156 229.477, 339.779 221.110, 327.470 230.107 C 304.539 246.869, 292.575 248.584, 275.920 237.496 C 255.550 223.935, 233.205 219.795, 224.947 228.053 C 223.876 229.124, 222.887 230, 222.750 230 C 222.613 229.999, 222.500 223.249, 222.500 214.999 L 222.500 200 226.590 200 C 232.624 200, 245.471 196.456, 253.885 192.469 C 259.090 190.003, 260.863 189.491, 259.892 190.735 C 257.166 194.229, 267.607 184.387, 271.743 179.564 C 281.016 168.753, 280.691 159.146, 271.186 163.036 M 386.767 185.786 C 385.371 187.279, 383.440 190.075, 382.477 192 C 357.168 242.583, 285.784 299.693, 220.719 321.412 C 186.677 332.775, 125.950 338.480, 104.116 332.364 C 98.701 330.848, 102.908 334.543, 108.578 336.283 C 163.387 353.103, 259.549 328.924, 309.993 285.639 L 312.486 283.500 310.546 285.796 C 308.378 288.363, 294.368 298.528, 280.080 307.900 C 227.096 342.657, 158.693 355.084, 108.750 339.025 C 92.562 333.820, 100.476 340.529, 121.684 349.989 C 220.149 393.911, 337.354 326.601, 388.377 196.829 C 392.534 186.257, 391.697 180.515, 386.767 185.786" stroke="none" fill="#0b79d9" fill-rule="evenodd"/></svg>